<svg width="48" height="48" viewBox="0 0 48 48" fill="none" xmlns="http://www.w3.org/2000/svg">
<mask id="path-1-inside-1_3353_20" fill="white">
<path d="M37 7C39.2091 7 41 8.79086 41 11V37C41 39.2091 39.2091 41 37 41H11C8.79086 41 7 39.2091 7 37V11C7 8.79086 8.79086 7 11 7H37ZM11.5 34C10.6716 34 10 34.6716 10 35.5V37.5C10 38.3284 10.6716 39 11.5 39C12.3284 39 13 38.3284 13 37.5V35.5C13 34.6716 12.3284 34 11.5 34ZM16.5 34C15.6716 34 15 34.6716 15 35.5V37.5C15 38.3284 15.6716 39 16.5 39C17.3284 39 18 38.3284 18 37.5V35.5C18 34.6716 17.3284 34 16.5 34ZM21.5 34C20.6716 34 20 34.6716 20 35.5V37.5C20 38.3284 20.6716 39 21.5 39C22.3284 39 23 38.3284 23 37.5V35.5C23 34.6716 22.3284 34 21.5 34ZM26.5 34C25.6716 34 25 34.6716 25 35.5V37.5C25 38.3284 25.6716 39 26.5 39C27.3284 39 28 38.3284 28 37.5V35.5C28 34.6716 27.3284 34 26.5 34ZM31.5 34C30.6716 34 30 34.6716 30 35.5V37.5C30 38.3284 30.6716 39 31.5 39C32.3284 39 33 38.3284 33 37.5V35.5C33 34.6716 32.3284 34 31.5 34ZM36.5 34C35.6716 34 35 34.6716 35 35.5V37.5C35 38.3284 35.6716 39 36.5 39C37.3284 39 38 38.3284 38 37.5V35.5C38 34.6716 37.3284 34 36.5 34ZM11.5 9C10.6716 9 10 9.67157 10 10.5V12.5C10 13.3284 10.6716 14 11.5 14C12.3284 14 13 13.3284 13 12.5V10.5C13 9.67157 12.3284 9 11.5 9ZM16.5 9C15.6716 9 15 9.67157 15 10.5V12.5C15 13.3284 15.6716 14 16.5 14C17.3284 14 18 13.3284 18 12.5V10.5C18 9.67157 17.3284 9 16.5 9ZM21.5 9C20.6716 9 20 9.67157 20 10.5V12.5C20 13.3284 20.6716 14 21.5 14C22.3284 14 23 13.3284 23 12.5V10.5C23 9.67157 22.3284 9 21.5 9ZM26.5 9C25.6716 9 25 9.67157 25 10.5V12.5C25 13.3284 25.6716 14 26.5 14C27.3284 14 28 13.3284 28 12.5V10.5C28 9.67157 27.3284 9 26.5 9ZM31.5 9C30.6716 9 30 9.67157 30 10.5V12.5C30 13.3284 30.6716 14 31.5 14C32.3284 14 33 13.3284 33 12.5V10.5C33 9.67157 32.3284 9 31.5 9ZM36.5 9C35.6716 9 35 9.67157 35 10.5V12.5C35 13.3284 35.6716 14 36.5 14C37.3284 14 38 13.3284 38 12.5V10.5C38 9.67157 37.3284 9 36.5 9Z"/>
</mask>
<path d="M37 7C39.2091 7 41 8.79086 41 11V37C41 39.2091 39.2091 41 37 41H11C8.79086 41 7 39.2091 7 37V11C7 8.79086 8.79086 7 11 7H37ZM11.5 34C10.6716 34 10 34.6716 10 35.5V37.5C10 38.3284 10.6716 39 11.5 39C12.3284 39 13 38.3284 13 37.5V35.5C13 34.6716 12.3284 34 11.5 34ZM16.5 34C15.6716 34 15 34.6716 15 35.5V37.5C15 38.3284 15.6716 39 16.5 39C17.3284 39 18 38.3284 18 37.5V35.5C18 34.6716 17.3284 34 16.5 34ZM21.5 34C20.6716 34 20 34.6716 20 35.5V37.5C20 38.3284 20.6716 39 21.5 39C22.3284 39 23 38.3284 23 37.5V35.5C23 34.6716 22.3284 34 21.5 34ZM26.5 34C25.6716 34 25 34.6716 25 35.5V37.5C25 38.3284 25.6716 39 26.5 39C27.3284 39 28 38.3284 28 37.5V35.5C28 34.6716 27.3284 34 26.5 34ZM31.5 34C30.6716 34 30 34.6716 30 35.5V37.5C30 38.3284 30.6716 39 31.5 39C32.3284 39 33 38.3284 33 37.5V35.5C33 34.6716 32.3284 34 31.5 34ZM36.5 34C35.6716 34 35 34.6716 35 35.5V37.5C35 38.3284 35.6716 39 36.5 39C37.3284 39 38 38.3284 38 37.5V35.5C38 34.6716 37.3284 34 36.5 34ZM11.5 9C10.6716 9 10 9.67157 10 10.5V12.5C10 13.3284 10.6716 14 11.5 14C12.3284 14 13 13.3284 13 12.5V10.5C13 9.67157 12.3284 9 11.5 9ZM16.5 9C15.6716 9 15 9.67157 15 10.5V12.5C15 13.3284 15.6716 14 16.5 14C17.3284 14 18 13.3284 18 12.5V10.5C18 9.67157 17.3284 9 16.5 9ZM21.5 9C20.6716 9 20 9.67157 20 10.5V12.5C20 13.3284 20.6716 14 21.5 14C22.3284 14 23 13.3284 23 12.5V10.5C23 9.67157 22.3284 9 21.5 9ZM26.5 9C25.6716 9 25 9.67157 25 10.5V12.5C25 13.3284 25.6716 14 26.5 14C27.3284 14 28 13.3284 28 12.5V10.5C28 9.67157 27.3284 9 26.5 9ZM31.5 9C30.6716 9 30 9.67157 30 10.5V12.5C30 13.3284 30.6716 14 31.5 14C32.3284 14 33 13.3284 33 12.5V10.5C33 9.67157 32.3284 9 31.5 9ZM36.5 9C35.6716 9 35 9.67157 35 10.5V12.5C35 13.3284 35.6716 14 36.5 14C37.3284 14 38 13.3284 38 12.5V10.5C38 9.67157 37.3284 9 36.5 9Z" fill="#804FE8"/>
<path d="M41 11H44H41ZM37 41V44V41ZM7 37H4H7ZM11 7V4V7ZM10 35.5H7H10ZM10 37.5H7H7H10ZM13 37.5H16H13ZM13 35.5H16H13ZM15 35.5H12H15ZM15 37.5H12H15ZM18 37.5H21H18ZM18 35.5H21H18ZM20 35.5H17H20ZM20 37.5H17H20ZM23 37.5H26H23ZM23 35.5H26H23ZM25 35.5H22H25ZM25 37.5H22H25ZM28 37.5H31H28ZM28 35.5H31H28ZM30 35.5H27H30ZM30 37.5H27H30ZM33 37.5H36H33ZM33 35.5H36H33ZM35 35.5H32H35ZM35 37.5H32H35ZM38 37.5H41H38ZM38 35.5H41H38ZM10 10.5H7H10ZM10 12.5H7H7H10ZM13 12.5H16H13ZM13 10.5H16H13ZM15 10.5H12H15ZM15 12.5H12H15ZM18 12.5H21H18ZM18 10.5H21H18ZM20 10.5H17H20ZM20 12.5H17H20ZM23 12.5H26H23ZM23 10.5H26H23ZM25 10.5H22H25ZM25 12.5H22H25ZM28 12.5H31H28ZM28 10.5H31H28ZM30 10.5H27H30ZM30 12.5H27H30ZM33 12.5H36H33ZM33 10.5H36H33ZM35 10.5H32H35ZM35 12.5H32H35ZM38 12.5H41H38ZM38 10.5H41H38ZM37 7V10C37.5523 10 38 10.4477 38 11H41H44C44 7.13401 40.866 4 37 4V7ZM41 11H38V37H41H44V11H41ZM41 37H38C38 37.5523 37.5523 38 37 38V41V44C40.866 44 44 40.866 44 37H41ZM37 41V38H11V41V44H37V41ZM11 41V38C10.4477 38 10 37.5523 10 37H7H4C4 40.866 7.13401 44 11 44V41ZM7 37H10V11H7H4V37H7ZM7 11H10C10 10.4477 10.4477 10 11 10V7V4C7.13401 4 4 7.13401 4 11H7ZM11 7V10H37V7V4H11V7ZM11.5 34V31C9.01472 31 7 33.0147 7 35.5H10H13C13 36.3284 12.3284 37 11.5 37V34ZM10 35.5H7V37.5H10H13V35.5H10ZM10 37.5H7C7 39.9853 9.01472 42 11.5 42V39V36C12.3284 36 13 36.6716 13 37.5H10ZM11.5 39V42C13.9853 42 16 39.9853 16 37.5H13H10C10 36.6716 10.6716 36 11.5 36V39ZM13 37.5H16V35.5H13H10V37.5H13ZM13 35.5H16C16 33.0147 13.9853 31 11.5 31V34V37C10.6716 37 10 36.3284 10 35.5H13ZM16.5 34V31C14.0147 31 12 33.0147 12 35.5H15H18C18 36.3284 17.3284 37 16.5 37V34ZM15 35.5H12V37.5H15H18V35.5H15ZM15 37.5H12C12 39.9853 14.0147 42 16.5 42V39V36C17.3284 36 18 36.6716 18 37.5H15ZM16.5 39V42C18.9853 42 21 39.9853 21 37.5H18H15C15 36.6716 15.6716 36 16.5 36V39ZM18 37.5H21V35.5H18H15V37.5H18ZM18 35.5H21C21 33.0147 18.9853 31 16.5 31V34V37C15.6716 37 15 36.3284 15 35.5H18ZM21.5 34V31C19.0147 31 17 33.0147 17 35.5H20H23C23 36.3284 22.3284 37 21.5 37V34ZM20 35.5H17V37.5H20H23V35.5H20ZM20 37.5H17C17 39.9853 19.0147 42 21.5 42V39V36C22.3284 36 23 36.6716 23 37.5H20ZM21.5 39V42C23.9853 42 26 39.9853 26 37.5H23H20C20 36.6716 20.6716 36 21.5 36V39ZM23 37.5H26V35.5H23H20V37.5H23ZM23 35.5H26C26 33.0147 23.9853 31 21.5 31V34V37C20.6716 37 20 36.3284 20 35.5H23ZM26.5 34V31C24.0147 31 22 33.0147 22 35.5H25H28C28 36.3284 27.3284 37 26.5 37V34ZM25 35.5H22V37.5H25H28V35.5H25ZM25 37.5H22C22 39.9853 24.0147 42 26.5 42V39V36C27.3284 36 28 36.6716 28 37.5H25ZM26.5 39V42C28.9853 42 31 39.9853 31 37.5H28H25C25 36.6716 25.6716 36 26.5 36V39ZM28 37.5H31V35.5H28H25V37.5H28ZM28 35.5H31C31 33.0147 28.9853 31 26.5 31V34V37C25.6716 37 25 36.3284 25 35.5H28ZM31.5 34V31C29.0147 31 27 33.0147 27 35.5H30H33C33 36.3284 32.3284 37 31.5 37V34ZM30 35.5H27V37.5H30H33V35.5H30ZM30 37.5H27C27 39.9853 29.0147 42 31.5 42V39V36C32.3284 36 33 36.6716 33 37.5H30ZM31.5 39V42C33.9853 42 36 39.9853 36 37.5H33H30C30 36.6716 30.6716 36 31.5 36V39ZM33 37.5H36V35.5H33H30V37.5H33ZM33 35.5H36C36 33.0147 33.9853 31 31.5 31V34V37C30.6716 37 30 36.3284 30 35.5H33ZM36.5 34V31C34.0147 31 32 33.0147 32 35.5H35H38C38 36.3284 37.3284 37 36.5 37V34ZM35 35.5H32V37.5H35H38V35.5H35ZM35 37.5H32C32 39.9853 34.0147 42 36.5 42V39V36C37.3284 36 38 36.6716 38 37.5H35ZM36.5 39V42C38.9853 42 41 39.9853 41 37.5H38H35C35 36.6716 35.6716 36 36.5 36V39ZM38 37.5H41V35.5H38H35V37.5H38ZM38 35.5H41C41 33.0147 38.9853 31 36.5 31V34V37C35.6716 37 35 36.3284 35 35.5H38ZM11.5 9V6C9.01472 6 7 8.01472 7 10.5H10H13C13 11.3284 12.3284 12 11.5 12V9ZM10 10.5H7V12.5H10H13V10.5H10ZM10 12.5H7C7 14.9853 9.01472 17 11.5 17V14V11C12.3284 11 13 11.6716 13 12.5H10ZM11.5 14V17C13.9853 17 16 14.9853 16 12.5H13H10C10 11.6716 10.6716 11 11.5 11V14ZM13 12.5H16V10.5H13H10V12.5H13ZM13 10.5H16C16 8.01472 13.9853 6 11.5 6V9V12C10.6716 12 10 11.3284 10 10.5H13ZM16.5 9V6C14.0147 6 12 8.01472 12 10.5H15H18C18 11.3284 17.3284 12 16.5 12V9ZM15 10.5H12V12.5H15H18V10.5H15ZM15 12.5H12C12 14.9853 14.0147 17 16.5 17V14V11C17.3284 11 18 11.6716 18 12.5H15ZM16.5 14V17C18.9853 17 21 14.9853 21 12.5H18H15C15 11.6716 15.6716 11 16.5 11V14ZM18 12.5H21V10.5H18H15V12.5H18ZM18 10.5H21C21 8.01472 18.9853 6 16.5 6V9V12C15.6716 12 15 11.3284 15 10.5H18ZM21.5 9V6C19.0147 6 17 8.01472 17 10.5H20H23C23 11.3284 22.3284 12 21.5 12V9ZM20 10.5H17V12.5H20H23V10.5H20ZM20 12.5H17C17 14.9853 19.0147 17 21.5 17V14V11C22.3284 11 23 11.6716 23 12.5H20ZM21.5 14V17C23.9853 17 26 14.9853 26 12.5H23H20C20 11.6716 20.6716 11 21.5 11V14ZM23 12.5H26V10.5H23H20V12.5H23ZM23 10.5H26C26 8.01472 23.9853 6 21.5 6V9V12C20.6716 12 20 11.3284 20 10.5H23ZM26.5 9V6C24.0147 6 22 8.01472 22 10.5H25H28C28 11.3284 27.3284 12 26.5 12V9ZM25 10.5H22V12.5H25H28V10.5H25ZM25 12.5H22C22 14.9853 24.0147 17 26.5 17V14V11C27.3284 11 28 11.6716 28 12.5H25ZM26.5 14V17C28.9853 17 31 14.9853 31 12.5H28H25C25 11.6716 25.6716 11 26.5 11V14ZM28 12.5H31V10.5H28H25V12.5H28ZM28 10.5H31C31 8.01472 28.9853 6 26.5 6V9V12C25.6716 12 25 11.3284 25 10.5H28ZM31.5 9V6C29.0147 6 27 8.01472 27 10.5H30H33C33 11.3284 32.3284 12 31.5 12V9ZM30 10.5H27V12.5H30H33V10.5H30ZM30 12.5H27C27 14.9853 29.0147 17 31.5 17V14V11C32.3284 11 33 11.6716 33 12.5H30ZM31.5 14V17C33.9853 17 36 14.9853 36 12.5H33H30C30 11.6716 30.6716 11 31.5 11V14ZM33 12.5H36V10.5H33H30V12.5H33ZM33 10.5H36C36 8.01472 33.9853 6 31.5 6V9V12C30.6716 12 30 11.3284 30 10.5H33ZM36.5 9V6C34.0147 6 32 8.01472 32 10.5H35H38C38 11.3284 37.3284 12 36.5 12V9ZM35 10.5H32V12.5H35H38V10.5H35ZM35 12.5H32C32 14.9853 34.0147 17 36.5 17V14V11C37.3284 11 38 11.6716 38 12.5H35ZM36.5 14V17C38.9853 17 41 14.9853 41 12.5H38H35C35 11.6716 35.6716 11 36.5 11V14ZM38 12.5H41V10.5H38H35V12.5H38ZM38 10.5H41C41 8.01472 38.9853 6 36.5 6V9V12C35.6716 12 35 11.3284 35 10.5H38Z" fill="#804FE8" mask="url(#path-1-inside-1_3353_20)"/>
<path d="M29.75 22.701C30.75 23.2783 30.75 24.7217 29.75 25.299L20.75 30.4952C19.75 31.0725 18.5 30.3509 18.5 29.1962L18.5 18.8038C18.5 17.6491 19.75 16.9275 20.75 17.5048L29.75 22.701Z" fill="white"/>
</svg>
