<svg width="48" height="48" viewBox="0 0 48 48" fill="none" xmlns="http://www.w3.org/2000/svg">
<path d="M24.3252 7.01074C24.9726 7.05465 25.6029 7.22972 26.1807 7.52246L26.4648 7.67773L26.4668 7.67871L36.5732 13.6885C37.3204 14.1304 37.9329 14.7643 38.3555 15.5176C38.7778 16.2706 38.9985 17.1209 39 17.9824V30.0127C39 31.7609 38.0944 33.405 36.5791 34.3076L36.5781 34.3086L26.4668 40.3213L26.4648 40.3223C25.7193 40.7645 24.8693 41 24 41C23.1307 41 22.2807 40.7645 21.5352 40.3223L21.5332 40.3213L11.4229 34.3086C9.90593 33.4074 9.00014 31.7641 9 30.0146V17.9873C9 16.2391 9.90561 14.595 11.4209 13.6924L11.4219 13.6914L14.0273 12.1416L15.0498 12.7324L29.1064 20.8467V27.6416C29.1064 28.7461 30.002 29.6415 31.1064 29.6416C32.211 29.6415 33.1064 28.7461 33.1064 27.6416V19.6934C33.1064 18.9789 32.7252 18.3182 32.1064 17.9609L17.9688 9.79785L21.5332 7.67871L21.5352 7.67773C22.2808 7.23547 23.1307 7 24 7L24.3252 7.01074Z" fill="#FFBC58"/>
<path d="M9.6748 15.4121C10.2427 14.4653 11.4708 14.1573 12.418 14.7246L12.4414 14.7393L25.0283 22.2852C25.6309 22.6464 25.9998 23.2984 26 24.001V39C25.9999 40.1045 25.1045 41 24 41C23.1306 41 22.2808 40.7636 21.5352 40.3213L21.5332 40.3203L11.4229 34.3086C9.90587 33.4073 9 31.7633 9 30.0137V17.9873C9.00007 17.2271 9.17338 16.4896 9.48926 15.8242C9.53507 15.6834 9.59543 15.5445 9.6748 15.4121Z" fill="#FFC773"/>
<path d="M35.582 14.7258C36.5293 14.1581 37.7572 14.4652 38.3252 15.4124C38.4022 15.5408 38.4614 15.6753 38.5068 15.8118C38.8298 16.4888 38.9987 17.2314 39 17.9827V30.0129C38.9998 31.7609 38.0943 33.4053 36.5791 34.3079L36.5781 34.3088L26.4668 40.3206L26.4648 40.3215C25.7192 40.7638 24.8693 41.0002 24 41.0002C22.8956 41.0002 22.0003 40.1046 22 39.0002V24.0012C22.0001 23.2986 22.3691 22.6467 22.9717 22.2854L27.2031 19.7473L29.1064 20.8469V27.6418C29.1066 28.7462 30.0021 29.6417 31.1064 29.6418C32.2109 29.6418 33.1063 28.7462 33.1064 27.6418V19.6936C33.1064 18.9791 32.7252 18.3185 32.1064 17.9612L31.127 17.3948L35.5586 14.7385L35.582 14.7258Z" fill="#FFA658"/>
</svg>
