<svg width="48" height="48" viewBox="0 0 48 48" fill="none" xmlns="http://www.w3.org/2000/svg">
<path d="M24 41C23.4154 41 22.8409 40.8444 22.3333 40.5486L10.6667 33.7351C9.635 33.1333 9 32.0215 9 30.8162V17.1855C9 15.9819 9.635 14.8684 10.6667 14.2649L16.5 10.8581M24 41C24.5846 41 25.1591 40.8444 25.6667 40.5486L37.3333 33.7351C38.365 33.1316 39 32.0181 39 30.8145V17.1838C38.999 16.5907 38.8443 16.0083 38.5516 15.4957C38.2589 14.9831 37.8387 14.5585 37.3333 14.2649L25.6667 7.45135C25.1591 7.15557 24.5846 7 24 7C23.4154 7 22.8409 7.15557 22.3333 7.45135L16.5 10.8581M24 41V24.0008M24 24.0008L9.44998 15.4328M24 24.0008L31.5565 19.551M38.55 15.4328L31.5565 19.551M16.5 10.8581L31.5565 19.551M31.5565 19.551V27.5" stroke="#7F7F7F" stroke-width="4" stroke-linecap="round" stroke-linejoin="round"/>
</svg>
