<svg width="48" height="48" viewBox="0 0 48 48" fill="none" xmlns="http://www.w3.org/2000/svg">
<path d="M8 12C8 9.79086 9.79086 8 12 8H36C38.2091 8 40 9.79086 40 12V36C40 38.2091 38.2091 40 36 40H12C9.79086 40 8 38.2091 8 36V12Z" fill="#DD5555" fill-opacity="0.1"/>
<path d="M6.5 36V33C6.5 32.1716 7.17157 31.5 8 31.5C8.82843 31.5 9.5 32.1716 9.5 33V36C9.5 37.3807 10.6193 38.5 12 38.5H15C15.8284 38.5 16.5 39.1716 16.5 40C16.5 40.8284 15.8284 41.5 15 41.5H12C8.96243 41.5 6.5 39.0376 6.5 36ZM27 38.5C27.8284 38.5 28.5 39.1716 28.5 40C28.5 40.8284 27.8284 41.5 27 41.5H21C20.1716 41.5 19.5 40.8284 19.5 40C19.5 39.1716 20.1716 38.5 21 38.5H27ZM38.5 36V33C38.5 32.1716 39.1716 31.5 40 31.5C40.8284 31.5 41.5 32.1716 41.5 33V36C41.5 39.0376 39.0376 41.5 36 41.5H33C32.1716 41.5 31.5 40.8284 31.5 40C31.5 39.1716 32.1716 38.5 33 38.5H36C37.3807 38.5 38.5 37.3807 38.5 36ZM6.5 27V21C6.5 20.1716 7.17157 19.5 8 19.5C8.82843 19.5 9.5 20.1716 9.5 21V27C9.5 27.8284 8.82843 28.5 8 28.5C7.17157 28.5 6.5 27.8284 6.5 27ZM38.5 27V21C38.5 20.1716 39.1716 19.5 40 19.5C40.8284 19.5 41.5 20.1716 41.5 21V27C41.5 27.8284 40.8284 28.5 40 28.5C39.1716 28.5 38.5 27.8284 38.5 27ZM6.5 15V12C6.5 8.96243 8.96243 6.5 12 6.5H15C15.8284 6.5 16.5 7.17157 16.5 8C16.5 8.82843 15.8284 9.5 15 9.5H12C10.6193 9.5 9.5 10.6193 9.5 12V15C9.5 15.8284 8.82843 16.5 8 16.5C7.17157 16.5 6.5 15.8284 6.5 15ZM38.5 15V12C38.5 10.6193 37.3807 9.5 36 9.5H33C32.1716 9.5 31.5 8.82843 31.5 8C31.5 7.17157 32.1716 6.5 33 6.5H36C39.0376 6.5 41.5 8.96243 41.5 12V15C41.5 15.8284 40.8284 16.5 40 16.5C39.1716 16.5 38.5 15.8284 38.5 15ZM27 6.5C27.8284 6.5 28.5 7.17157 28.5 8C28.5 8.82843 27.8284 9.5 27 9.5H21C20.1716 9.5 19.5 8.82843 19.5 8C19.5 7.17157 20.1716 6.5 21 6.5H27Z" fill="#DD5555"/>
</svg>
