<svg width="48" height="48" viewBox="0 0 48 48" fill="none" xmlns="http://www.w3.org/2000/svg">
<path d="M37 7C39.2091 7 41 8.79086 41 11V37C41 39.2091 39.2091 41 37 41H11C8.79086 41 7 39.2091 7 37V11C7 8.79086 8.79086 7 11 7H37ZM26.6475 16.0811C25.9734 13.3063 22.0267 13.3063 21.3535 16.0811C21.327 16.1919 21.2742 16.2951 21.2002 16.3818C21.1261 16.4686 21.0321 16.5365 20.9268 16.5801C20.8215 16.6236 20.7073 16.6418 20.5938 16.6328C20.4802 16.6238 20.3705 16.5879 20.2734 16.5283C17.8344 15.0433 15.0443 17.8344 16.5293 20.2734C16.5884 20.3706 16.624 20.4803 16.6328 20.5938C16.6415 20.7073 16.6227 20.8215 16.5791 20.9268C16.5355 21.032 16.4684 21.1261 16.3818 21.2002C16.2953 21.2743 16.1918 21.3267 16.0811 21.3535C13.3063 22.0277 13.3063 25.9744 16.0811 26.6475C16.1916 26.6744 16.2944 26.7268 16.3809 26.8008C16.4673 26.8749 16.5356 26.969 16.5791 27.0742C16.6225 27.1792 16.6406 27.293 16.6318 27.4062C16.623 27.5198 16.5876 27.6303 16.5283 27.7275C15.0436 30.1665 17.8345 32.9566 20.2734 31.4717C20.3707 31.4125 20.4803 31.3769 20.5938 31.3682C20.7073 31.3594 20.8216 31.3773 20.9268 31.4209C21.032 31.4646 21.1261 31.5326 21.2002 31.6191C21.2741 31.7056 21.3267 31.8084 21.3535 31.9189C22.0275 34.6939 25.9745 34.6939 26.6475 31.9189C26.6744 31.8084 26.7267 31.7055 26.8008 31.6191C26.8749 31.5327 26.969 31.4654 27.0742 31.4219C27.1793 31.3784 27.2929 31.3604 27.4062 31.3691C27.5198 31.3779 27.6303 31.4134 27.7275 31.4727C30.1663 32.957 32.956 30.1663 31.4717 27.7275C31.4125 27.6302 31.3769 27.5198 31.3682 27.4062C31.3595 27.2927 31.3773 27.1784 31.4209 27.0732C31.4646 26.9681 31.5326 26.8748 31.6191 26.8008C31.7056 26.7268 31.8083 26.6743 31.9189 26.6475C34.6939 25.9735 34.6939 22.0265 31.9189 21.3535C31.8084 21.3265 31.7055 21.2733 31.6191 21.1992C31.5329 21.1252 31.4654 21.0318 31.4219 20.9268C31.3783 20.8215 31.3603 20.7073 31.3691 20.5938C31.378 20.4803 31.4135 20.3706 31.4727 20.2734C32.9576 17.8345 30.1665 15.0446 27.7275 16.5293C27.6302 16.5885 27.5198 16.6241 27.4062 16.6328C27.2927 16.6415 27.1784 16.6227 27.0732 16.5791C26.9683 16.5355 26.8747 16.4682 26.8008 16.3818C26.7267 16.2953 26.6743 16.1918 26.6475 16.0811ZM24 21C24.7955 21 25.5585 21.3165 26.1211 21.8789C26.6836 22.4415 26.9999 23.2044 27 24C27 24.7956 26.6837 25.5585 26.1211 26.1211C25.5585 26.6837 24.7956 27 24 27C23.2044 26.9999 22.4415 26.6836 21.8789 26.1211C21.3165 25.5585 21 24.7955 21 24C21.0001 23.2044 21.3164 22.4415 21.8789 21.8789C22.4415 21.3164 23.2044 21.0001 24 21Z" fill="#DDDDDD"/>
</svg>
