<svg width="48" height="48" viewBox="0 0 48 48" fill="none" xmlns="http://www.w3.org/2000/svg">
<path d="M38.6959 17.9407C40.8793 18.2762 42.377 20.3188 42.0416 22.5022L39.7086 37.6965C39.3731 39.8799 37.3305 41.3776 35.1471 41.0422L19.9537 38.7092C18.4332 38.4757 17.2451 37.4142 16.777 36.054L31.0836 34.3977C33.2779 34.1434 34.8504 32.1584 34.5963 29.9641L33.1041 17.0813L38.6959 17.9407Z" fill="#0079CC"/>
<path d="M27.9637 7.46011C30.1581 7.20601 32.143 8.77915 32.3973 10.9734L34.5965 29.9647C34.8505 32.1591 33.2776 34.1442 31.0831 34.3983L12.0928 36.5973C9.8984 36.8514 7.91344 35.2784 7.65926 33.084L5.46012 14.0927C5.20621 11.8984 6.77909 9.91325 8.97345 9.65915L27.9637 7.46011ZM19.2972 19.5441C18.6895 18.7582 17.415 18.9058 17.003 19.8097L11.6725 31.5074C11.2608 32.4114 12.0207 33.3939 13.0403 33.2758L30.135 31.2963C31.3152 31.1595 31.8798 29.774 31.1319 28.851L25.9245 22.4249C25.2295 21.5675 23.8783 21.7242 23.3975 22.7175L22.7627 24.0277L19.2972 19.5441ZM24.4733 11.8792C22.7231 12.0819 21.4684 13.6652 21.6711 15.4155C21.8738 17.1656 23.4571 18.4204 25.2073 18.2177C26.9574 18.015 28.2121 16.4316 28.0096 14.6815C27.8069 12.9313 26.2235 11.6767 24.4733 11.8792Z" fill="#0097FF"/>
</svg>
