<svg width="48" height="48" viewBox="0 0 48 48" fill="none" xmlns="http://www.w3.org/2000/svg">
<path fill-rule="evenodd" clip-rule="evenodd" d="M9.90909 20.0909H12.8182C15.5294 20.0909 17.7273 22.2888 17.7273 25V38.0909C17.7273 40.8021 15.5294 43 12.8182 43H9.90909C7.19787 43 5 40.8021 5 38.0909V25C5 22.2888 7.19788 20.0909 9.90909 20.0909ZM9.90909 22.0909C8.30244 22.0909 7 23.3934 7 25V38.0909C7 39.6976 8.30244 41 9.90909 41H12.8182C14.4248 41 15.7273 39.6976 15.7273 38.0909V25C15.7273 23.3934 14.4248 22.0909 12.8182 22.0909H9.90909Z" fill="#282828"/>
<path fill-rule="evenodd" clip-rule="evenodd" d="M35.7059 39.9697C35.9538 39.3651 36.0909 38.7004 36.0909 38.0028V24.5152C36.0909 23.3512 35.7093 22.279 35.0679 21.4243H38C39.6568 21.4243 41 22.7017 41 24.2774V37.1166C41 38.6923 39.6568 39.9697 38 39.9697H35.7059Z" fill="#4990C0"/>
<rect x="19.0455" y="7" width="12.6364" height="13.0193" rx="3.15909" fill="#66C1FF"/>
<path d="M7 24.2774C7 22.7016 8.34315 21.4243 10 21.4243H13C14.6569 21.4243 16 22.7017 16 24.2774V37.1166C16 38.6923 14.6569 39.9697 13 39.9697H10C8.34315 39.9697 7 38.6923 7 37.1166V24.2774Z" fill="#66C1FF"/>
<path fill-rule="evenodd" clip-rule="evenodd" d="M16.9374 40.7551C17.4371 39.963 17.7273 39.0178 17.7273 38.0028V24.5152C17.7273 23.5001 17.4371 22.5549 16.9374 21.7628C17.2911 21.6052 17.6811 21.5179 18.0909 21.5179H31.1818C32.7885 21.5179 34.0909 22.8598 34.0909 24.5152V38.0028C34.0909 39.6581 32.7885 41 31.1818 41H18.0909C17.6811 41 17.2911 40.9127 16.9374 40.7551Z" fill="#5CADE6"/>
</svg>
