<svg width="48" height="48" viewBox="0 0 48 48" fill="none" xmlns="http://www.w3.org/2000/svg">
<mask id="mask0_4017_41" style="mask-type:alpha" maskUnits="userSpaceOnUse" x="14" y="14" width="28" height="27">
<mask id="path-1-inside-1_4017_41" fill="white">
<path d="M42 41H14V31H33V14H42V41Z"/>
</mask>
<path d="M42 41H14V31H33V14H42V41Z" fill="#D9D9D9"/>
<path d="M42 41V42H43V41H42ZM14 41H13V42H14V41ZM14 31V30H13V31H14ZM33 31V32H34V31H33ZM33 14V13H32V14H33ZM42 14H43V13H42V14ZM42 41V40H14V41V42H42V41ZM14 41H15V31H14H13V41H14ZM14 31V32H33V31V30H14V31ZM33 31H34V14H33H32V31H33ZM33 14V15H42V14V13H33V14ZM42 14H41V41H42H43V14H42Z" fill="#D1E0EE" mask="url(#path-1-inside-1_4017_41)"/>
</mask>
<g mask="url(#mask0_4017_41)">
<circle opacity="0.5" cx="29" cy="29" r="10.5" stroke="#D1E0EE" stroke-width="3"/>
</g>
<path d="M30 7C32.2091 7 34 8.79086 34 11V31C34 33.2091 32.2091 35 30 35H10C7.79086 35 6 33.2091 6 31V11C6 8.79086 7.79086 7 10 7H30ZM15.2354 12C14.5533 12.0002 14 12.5533 14 13.2354V17H12.2354C11.5533 17.0002 11 17.5533 11 18.2354C11.0001 18.9174 11.5533 19.4705 12.2354 19.4707H14V28.1074C14 28.7895 14.5533 29.3426 15.2354 29.3428C15.9174 29.3425 16.4707 28.7895 16.4707 28.1074V19.4707H18.1084C18.7902 19.4702 19.3427 18.9172 19.3428 18.2354C19.3427 17.5535 18.7902 17.0005 18.1084 17H16.4707V13.2354C16.4707 12.5533 15.9173 12.0002 15.2354 12ZM24.2354 12C23.5533 12.0002 23 12.5533 23 13.2354V22H21.2354C20.5533 22.0002 20 22.5533 20 23.2354C20.0001 23.9174 20.5533 24.4705 21.2354 24.4707H23V28.1074C23 28.7895 23.5533 29.3426 24.2354 29.3428C24.9174 29.3425 25.4707 28.7895 25.4707 28.1074V24.4707H27.1084C27.7902 24.4702 28.3427 23.9172 28.3428 23.2354C28.3427 22.5535 27.7902 22.0005 27.1084 22H25.4707V13.2354C25.4707 12.5533 24.9173 12.0002 24.2354 12Z" fill="#FFBB55"/>
</svg>
