<svg width="48" height="48" viewBox="0 0 48 48" fill="none" xmlns="http://www.w3.org/2000/svg">
<path d="M17.0766 19.1676L8.31496 36.691C7.57966 38.1616 8.17574 39.9498 9.64635 40.6851C11.117 41.4204 12.9052 40.8243 13.6405 39.3537L22.3898 21.8551L31.1391 39.3537C31.8744 40.8243 33.6627 41.4204 35.1333 40.6851C36.6039 39.9498 37.2 38.1616 36.4646 36.691L27.703 19.1676H17.0766Z" fill="#4D91BF"/>
<path fill-rule="evenodd" clip-rule="evenodd" d="M36.326 13.2479C37.9511 12.9979 39.4712 14.1126 39.7212 15.7377C40.3348 19.7264 39.6697 24.9523 34.9144 29.7076C30.2603 34.3616 24.9652 35.5413 20.9011 35.5413C18.8866 35.5413 17.1651 35.2543 15.9397 34.966C15.3244 34.8212 14.8265 34.6743 14.4704 34.5588C14.2921 34.5009 13.8413 34.336 13.8413 34.336C12.3147 33.7254 11.5722 31.9928 12.1828 30.4662C12.7916 28.9443 14.5154 28.2016 16.0386 28.8022C16.0386 28.8022 16.8643 29.0668 17.3034 29.1701C18.1867 29.378 19.4423 29.5872 20.9011 29.5872C23.7834 29.5872 27.4194 28.7821 30.7042 25.4973C33.8878 22.3138 34.215 19.1046 33.8363 16.6431C33.5863 15.018 34.701 13.4979 36.326 13.2479Z" fill="#66C1FF"/>
<path fill-rule="evenodd" clip-rule="evenodd" d="M17.7187 10.2364C16.736 10.2364 15.9393 11.033 15.9393 12.0158V16.6867C15.9393 20.2491 18.8272 23.137 22.3896 23.137C25.952 23.137 28.8399 20.2491 28.8399 16.6867V12.0158C28.8399 11.033 28.0433 10.2364 27.0605 10.2364H25.8629V7.99235C25.8629 7.44429 25.4186 7 24.8705 7H19.9087C19.3607 7 18.9164 7.44429 18.9164 7.99235V10.2364H17.7187ZM22.3896 18.1752C23.7598 18.1752 24.8705 17.0645 24.8705 15.6943C24.8705 14.3242 23.7598 13.2134 22.3896 13.2134C21.0195 13.2134 19.9087 14.3242 19.9087 15.6943C19.9087 17.0645 21.0195 18.1752 22.3896 18.1752Z" fill="#66C1FF"/>
</svg>
