<svg width="48" height="48" viewBox="0 0 48 48" fill="none" xmlns="http://www.w3.org/2000/svg">
<path d="M19.8731 20.8732L14.2038 32.2118C13.728 33.1634 14.1137 34.3205 15.0653 34.7963C16.0168 35.272 17.1739 34.8863 17.6497 33.9348L23.311 22.6121L28.9724 33.9348C29.4481 34.8863 30.6052 35.272 31.5568 34.7963C32.5084 34.3205 32.8941 33.1634 32.4183 32.2118L26.749 20.8732H19.8731Z" fill="#4D91BF"/>
<path fill-rule="evenodd" clip-rule="evenodd" d="M32.3286 17.0428C33.3801 16.881 34.3637 17.6023 34.5255 18.6538C34.9226 21.2348 34.4922 24.6162 31.4152 27.6932C28.4038 30.7046 24.9775 31.4679 22.3478 31.4679C21.0443 31.4679 19.9304 31.2822 19.1374 31.0957C18.7393 31.002 18.4172 30.9069 18.1867 30.8322C18.0714 30.7948 17.7797 30.688 17.7797 30.688C16.7919 30.2929 16.3114 29.1719 16.7065 28.1841C17.1004 27.1993 18.2159 26.7187 19.2015 27.1073C19.2015 27.1073 19.7357 27.2786 20.0199 27.3454C20.5914 27.4799 21.4038 27.6153 22.3478 27.6153C24.2128 27.6153 26.5655 27.0944 28.691 24.9689C30.7509 22.909 30.9627 20.8324 30.7176 19.2397C30.5558 18.1881 31.2771 17.2046 32.3286 17.0428Z" fill="#66C1FF"/>
<path fill-rule="evenodd" clip-rule="evenodd" d="M20.2886 15.0941C19.6527 15.0941 19.1372 15.6096 19.1372 16.2455V19.2679C19.1372 21.5729 21.0059 23.4416 23.311 23.4416C25.6161 23.4416 27.4847 21.5729 27.4847 19.2679V16.2455C27.4847 15.6096 26.9692 15.0941 26.3333 15.0941H25.5584V13.6421C25.5584 13.2875 25.2709 13 24.9162 13H21.7057C21.3511 13 21.0636 13.2875 21.0636 13.6421V15.0941H20.2886ZM23.311 20.231C24.1975 20.231 24.9162 19.5123 24.9162 18.6257C24.9162 17.7392 24.1975 17.0205 23.311 17.0205C22.4244 17.0205 21.7057 17.7392 21.7057 18.6257C21.7057 19.5123 22.4244 20.231 23.311 20.231Z" fill="#66C1FF"/>
<rect x="8" y="8" width="32" height="32" rx="4" stroke="#66C1FF" stroke-width="3" stroke-linecap="round" stroke-dasharray="8 8"/>
</svg>
