<svg width="48" height="48" viewBox="0 0 48 48" fill="none" xmlns="http://www.w3.org/2000/svg">
<path d="M37 7C39.2091 7 41 8.79086 41 11V37C41 39.2091 39.2091 41 37 41H11C8.79086 41 7 39.2091 7 37V11C7 8.79086 8.79086 7 11 7H37ZM22.0605 16.9395C21.4748 16.3537 20.5252 16.3537 19.9395 16.9395L15.9395 20.9395C15.3537 21.5252 15.3537 22.4748 15.9395 23.0605L19.9395 27.0605C20.5252 27.6463 21.4748 27.6463 22.0605 27.0605C22.6463 26.4748 22.6463 25.5252 22.0605 24.9395L20.6211 23.5H28L28.2471 23.5127C28.8194 23.5695 29.3573 23.8222 29.7676 24.2324C30.2364 24.7013 30.5 25.337 30.5 26C30.5 26.663 30.2364 27.2987 29.7676 27.7676C29.2987 28.2364 28.663 28.5 28 28.5H27C26.1716 28.5 25.5 29.1716 25.5 30C25.5 30.8284 26.1716 31.5 27 31.5H28C29.4587 31.5 30.8572 30.9201 31.8887 29.8887C32.9201 28.8572 33.5 27.4587 33.5 26C33.5 24.5413 32.9201 23.1428 31.8887 22.1113C30.8572 21.0799 29.4587 20.5 28 20.5H20.6211L22.0605 19.0605C22.6463 18.4748 22.6463 17.5252 22.0605 16.9395Z" fill="#6AC2FF"/>
</svg>
