<svg width="48" height="48" viewBox="0 0 48 48" fill="none" xmlns="http://www.w3.org/2000/svg">
<path d="M11 9H37C38.1046 9 39 9.89543 39 11V37C39 38.1046 38.1046 39 37 39H11C9.89543 39 9 38.1046 9 37V11C9 9.89543 9.89543 9 11 9Z" stroke="#6AC2FF" stroke-width="4"/>
<path d="M41 36C41 38.2091 39.2091 40 37 40H11C8.79086 40 7 38.2091 7 36V32H41V36ZM29.5 34C28.6716 34 28 34.6716 28 35.5C28 36.3284 28.6716 37 29.5 37C30.3284 37 31 36.3284 31 35.5C31 34.6716 30.3284 34 29.5 34ZM34.5 34C33.6716 34 33 34.6716 33 35.5C33 36.3284 33.6716 37 34.5 37C35.3284 37 36 36.3284 36 35.5C36 34.6716 35.3284 34 34.5 34Z" fill="#6AC2FF"/>
</svg>
