<svg width="48" height="48" viewBox="0 0 48 48" fill="none" xmlns="http://www.w3.org/2000/svg">
<path opacity="0.2" d="M23.1936 8.09941C23.5932 7.55465 24.4068 7.55465 24.8064 8.09941L28.6271 13.3087C28.8239 13.5771 29.1413 13.7299 29.4738 13.7165L35.9288 13.4557C36.6039 13.4284 37.1111 14.0645 36.9343 14.7166L35.2437 20.9517C35.1566 21.2729 35.235 21.6164 35.4529 21.8679L39.6814 26.7521C40.1236 27.2628 39.9425 28.056 39.3225 28.3244L33.3936 30.8901C33.0882 31.0223 32.8685 31.2977 32.8077 31.6249L31.6255 37.9761C31.5019 38.6402 30.7689 38.9933 30.1725 38.6758L24.4699 35.6401C24.1761 35.4838 23.8239 35.4838 23.5301 35.6401L17.8275 38.6758C17.2311 38.9933 16.4981 38.6402 16.3745 37.9761L15.1923 31.6249C15.1315 31.2977 14.9118 31.0223 14.6064 30.8901L8.67751 28.3244C8.05749 28.056 7.87644 27.2628 8.31864 26.7521L12.5471 21.8679C12.765 21.6164 12.8434 21.2729 12.7563 20.9517L11.0657 14.7166C10.8889 14.0645 11.3961 13.4284 12.0712 13.4557L18.5262 13.7165C18.8587 13.7299 19.1761 13.5771 19.3729 13.3087L23.1936 8.09941Z" fill="#FFA15D"/>
<path d="M23.1936 14.0994C23.5932 13.5546 24.4068 13.5546 24.8064 14.0994L26.8829 16.9306C27.0797 17.199 27.3971 17.3518 27.7296 17.3384L31.2378 17.1966C31.9129 17.1694 32.4201 17.8055 32.2433 18.4575L31.3245 21.8462C31.2374 22.1674 31.3158 22.5109 31.5336 22.7625L33.8318 25.4169C34.274 25.9277 34.0929 26.7209 33.4729 26.9892L30.2506 28.3837C29.9452 28.5159 29.7256 28.7913 29.6647 29.1185L29.0222 32.5703C28.8986 33.2344 28.1656 33.5874 27.5692 33.27L24.4699 31.6201C24.1761 31.4638 23.8239 31.4638 23.5301 31.6201L20.4308 33.27C19.8344 33.5874 19.1014 33.2344 18.9778 32.5703L18.3353 29.1185C18.2744 28.7913 18.0548 28.5159 17.7494 28.3837L14.5271 26.9892C13.9071 26.7209 13.726 25.9277 14.1682 25.4169L16.4664 22.7625C16.6842 22.5109 16.7626 22.1674 16.6755 21.8462L15.7567 18.4575C15.5799 17.8055 16.0871 17.1694 16.7622 17.1966L20.2704 17.3384C20.6029 17.3518 20.9203 17.199 21.1171 16.9306L23.1936 14.0994Z" fill="#FFA15D"/>
</svg>
