<svg width="48" height="48" viewBox="0 0 48 48" fill="none" xmlns="http://www.w3.org/2000/svg">
<path d="M37 7C39.2091 7 41 8.79086 41 11V37C41 39.2091 39.2091 41 37 41H11C8.79086 41 7 39.2091 7 37V11C7 8.79086 8.79086 7 11 7H37ZM19 13.5C18.0717 13.5 17.1818 13.869 16.5254 14.5254C15.869 15.1818 15.5 16.0717 15.5 17V31C15.5 31.9283 15.869 32.8182 16.5254 33.4746C17.1818 34.131 18.0717 34.5 19 34.5H29C29.9283 34.5 30.8182 34.131 31.4746 33.4746C32.131 32.8182 32.5 31.9283 32.5 31V20C32.5 19.6022 32.3419 19.2208 32.0605 18.9395L27.0605 13.9395C26.7792 13.6581 26.3978 13.5 26 13.5H19ZM24.5 16.5V19C24.5 19.663 24.7636 20.2987 25.2324 20.7676C25.7013 21.2364 26.337 21.5 27 21.5H29.5V31C29.5 31.1326 29.4473 31.2597 29.3535 31.3535C29.2597 31.4473 29.1326 31.5 29 31.5H19C18.8674 31.5 18.7403 31.4473 18.6465 31.3535C18.5761 31.2831 18.5289 31.1939 18.5098 31.0977L18.5 31V17C18.5 16.8674 18.5527 16.7403 18.6465 16.6465C18.7403 16.5527 18.8674 16.5 19 16.5H24.5Z" fill="#DDDDDD"/>
</svg>
