<svg width="48" height="48" viewBox="0 0 48 48" fill="none" xmlns="http://www.w3.org/2000/svg">
<path d="M23.4135 40C22.413 40 21.5911 39.6563 20.9479 38.9688C20.3762 38.2813 20.1261 37.4219 20.1976 36.3906L21.1623 28.2438C21.2338 28.0375 21.1981 27.9 21.0551 27.8313C20.9122 27.7625 20.7335 27.7969 20.5191 27.9344L13.5513 32.7813C12.6937 33.4 11.8004 33.6406 10.8714 33.5031C9.94232 33.2969 9.19193 32.7469 8.62021 31.8531C7.97703 30.7531 7.8341 29.7906 8.19142 28.9656C8.62021 28.1406 9.29913 27.5562 10.2282 27.2125L18.0536 23.8094C18.268 23.7406 18.3752 23.6375 18.3752 23.5C18.3752 23.3625 18.268 23.2594 18.0536 23.1906L10.2282 19.7875C9.22767 19.375 8.58448 18.7219 8.29862 17.8281C8.01276 16.9344 8.11996 16.0406 8.62021 15.1469C9.19193 14.2531 9.94232 13.7375 10.8714 13.6C11.8004 13.3938 12.6937 13.5656 13.5513 14.1156L20.5191 19.0656C20.7335 19.2031 20.9122 19.2375 21.0551 19.1687C21.1981 19.1 21.2338 18.9625 21.1623 18.7563L20.1976 10.6094C20.1261 9.57812 20.4119 8.71875 21.0551 8.03125C21.6983 7.34375 22.5559 7 23.6279 7C24.6284 7 25.4502 7.34375 26.0934 8.03125C26.7366 8.71875 26.9867 9.57812 26.8438 10.6094L25.879 18.7563C25.8076 18.9625 25.8433 19.1 25.9862 19.1687C26.1291 19.2375 26.3078 19.2031 26.5222 19.0656L33.49 14.2187C34.3476 13.6 35.2409 13.3938 36.17 13.6C37.1705 13.7375 37.9209 14.2531 38.4211 15.1469C39.0643 16.2469 39.1715 17.2094 38.7427 18.0344C38.3854 18.8594 37.7422 19.4438 36.8132 19.7875L28.9878 23.1906C28.7734 23.2594 28.6662 23.3625 28.6662 23.5C28.6662 23.6375 28.7734 23.7406 28.9878 23.8094L36.8132 27.2125C37.8137 27.625 38.4569 28.2781 38.7427 29.1719C39.1001 30.0656 38.9929 30.9594 38.4211 31.8531C37.9209 32.7469 37.1705 33.2969 36.17 33.5031C35.2409 33.6406 34.3476 33.4344 33.49 32.8844L26.5222 27.9344C26.3078 27.7969 26.1291 27.7625 25.9862 27.8313C25.8433 27.9 25.8076 28.0375 25.879 28.2438L26.8438 36.3906C26.9867 37.4219 26.7009 38.2813 25.9862 38.9688C25.343 39.6563 24.4855 40 23.4135 40Z" fill="#DD5555"/>
</svg>
