<svg width="48" height="48" viewBox="0 0 48 48" fill="none" xmlns="http://www.w3.org/2000/svg">
<path d="M37 7C39.2091 7 41 8.79086 41 11V37C41 39.2091 39.2091 41 37 41H11C8.79086 41 7 39.2091 7 37V11C7 8.79086 8.79086 7 11 7H37ZM23.6602 13.8799C23.2802 13.8399 22.9201 13.9304 22.5801 14.1504C22.2602 14.3704 22.0203 14.6802 21.8604 15.0801L14.3896 33.0195C14.3297 33.2195 14.2998 33.4099 14.2998 33.5898C14.2998 34.0298 14.4304 34.4002 14.6904 34.7002C14.9504 34.9999 15.35 35.1503 15.8896 35.1504C16.2296 35.1504 16.5403 35.0496 16.8203 34.8496C17.1201 34.6296 17.3405 34.33 17.4805 33.9502L19.0361 30.29H27.9824L29.54 33.9199C29.7 34.2999 29.9202 34.6003 30.2002 34.8203C30.5001 35.0402 30.8305 35.1504 31.1904 35.1504C31.6103 35.1503 31.9902 34.9898 32.3301 34.6699C32.69 34.3499 32.8701 33.9198 32.8701 33.3799C32.8701 33.1599 32.8197 32.9201 32.7197 32.6602L25.3398 15.0801C25.1999 14.7002 24.9703 14.41 24.6504 14.21C24.3504 13.99 24.0201 13.8799 23.6602 13.8799ZM26.502 26.8398H20.5039L23.4883 19.8184L26.502 26.8398Z" fill="#DDDDDD"/>
</svg>
