<svg width="48" height="48" viewBox="0 0 48 48" fill="none" xmlns="http://www.w3.org/2000/svg">
<path d="M25.8115 7C27.4681 7.00027 28.8115 8.34331 28.8115 10V12C28.8115 10.3431 30.1547 9 31.8115 9C33.4681 9.00027 34.8115 10.3433 34.8115 12V15C34.8115 13.3431 36.1547 12 37.8115 12C39.4681 12.0003 40.8115 13.3433 40.8115 15V38C40.8115 39.6049 39.5507 40.9155 37.9658 40.9961L37.8115 41H19.8115L19.6562 40.9961C18.3545 40.9299 17.2741 40.0334 16.9287 38.8262L8.43164 23.8545C7.53492 22.2746 8.08008 20.2668 9.65332 19.3584C11.021 18.5688 12.7563 18.8571 13.7959 20.0459L16.8115 23.4941V12C16.8115 10.3431 18.1547 9 19.8115 9C21.4682 9.00027 22.8115 10.3433 22.8115 12V10C22.8115 8.34315 24.1547 7 25.8115 7ZM23 26.5C22.1716 26.5 21.5 27.1716 21.5 28V36C21.5 36.8284 22.1716 37.5 23 37.5C23.8284 37.5 24.5 36.8284 24.5 36V28C24.5 27.1716 23.8284 26.5 23 26.5ZM29 26.5C28.1716 26.5 27.5 27.1716 27.5 28V36C27.5 36.8284 28.1716 37.5 29 37.5C29.8284 37.5 30.5 36.8284 30.5 36V28C30.5 27.1716 29.8284 26.5 29 26.5ZM35 26.5C34.1716 26.5 33.5 27.1716 33.5 28V36C33.5 36.8284 34.1716 37.5 35 37.5C35.8284 37.5 36.5 36.8284 36.5 36V28C36.5 27.1716 35.8284 26.5 35 26.5Z" fill="#FFA15E"/>
</svg>
