<svg width="48" height="48" viewBox="0 0 48 48" fill="none" xmlns="http://www.w3.org/2000/svg">
<circle cx="24" cy="24" r="17" fill="url(#paint0_linear_3314_2)"/>
<mask id="mask0_3314_2" style="mask-type:alpha" maskUnits="userSpaceOnUse" x="7" y="7" width="34" height="34">
<circle cx="24" cy="24" r="17" fill="black"/>
</mask>
<g mask="url(#mask0_3314_2)">
<path opacity="0.5" d="M37 19C41.9706 19 46 23.0294 46 28C46 28.1345 45.9951 28.2683 45.9893 28.4014C48.9834 30.2155 51 33.6095 51 37.5C51 43.299 46.5228 48 41 48C37.7771 48 34.9118 46.3979 33.083 43.9121C31.1716 45.8135 28.4822 47 25.5 47C19.701 47 15 42.5228 15 37C15 31.4772 19.701 27 25.5 27C26.3724 27 27.2198 27.102 28.0303 27.293C28.391 22.653 32.2675 19 37 19Z" fill="#FFDF8E"/>
</g>
<path d="M20.6387 11.001C23.6658 12.141 25.8201 15.0625 25.8203 18.4883C25.8203 22.9065 22.2385 26.4882 17.8203 26.4883C15.5266 26.4883 13.4597 25.5221 12.001 23.9756C12.878 24.306 13.8278 24.4893 14.8203 24.4893C19.2383 24.4892 22.82 20.9072 22.8203 16.4893C22.8203 14.3643 21.9903 12.4335 20.6387 11.001Z" fill="#FFDF8E"/>
<defs>
<linearGradient id="paint0_linear_3314_2" x1="24" y1="7" x2="24" y2="41" gradientUnits="userSpaceOnUse">
<stop stop-color="#CC00FF"/>
<stop offset="1" stop-color="#FFDF8E"/>
</linearGradient>
</defs>
</svg>
