<svg width="48" height="48" viewBox="0 0 48 48" fill="none" xmlns="http://www.w3.org/2000/svg">
<path d="M37 7C39.2091 7 41 8.79086 41 11V37C41 39.2091 39.2091 41 37 41H11C8.79086 41 7 39.2091 7 37V11C7 8.79086 8.79086 7 11 7H37ZM23.4482 20.7998C22.8047 19.7331 21.1953 19.7331 20.5518 20.7998L12.2266 34.5996C11.583 35.6663 12.3878 37 13.6748 37H35.251C36.7407 37 37.6442 35.3562 36.8457 34.0986L31.2861 25.3438C30.5441 24.1756 28.8387 24.1756 28.0967 25.3438L27.1182 26.8838L23.4482 20.7998ZM31 12C28.7909 12 27 13.7909 27 16C27 18.2091 28.7909 20 31 20C33.2091 20 35 18.2091 35 16C35 13.7909 33.2091 12 31 12Z" fill="#DDDDDD"/>
</svg>
