<svg width="48" height="48" viewBox="0 0 48 48" fill="none" xmlns="http://www.w3.org/2000/svg">
<path d="M37 7C39.2091 7 41 8.79086 41 11V37C41 39.2091 39.2091 41 37 41H11C8.79086 41 7 39.2091 7 37V11C7 8.79086 8.79086 7 11 7H37ZM23.9805 14C23.3708 14 22.8538 14.1971 22.4297 14.5908C22.0056 14.9845 21.793 15.4832 21.793 16.0869V22.3857H15.8691C15.339 22.3857 14.8877 22.5563 14.5166 22.8975C14.1721 23.2124 14.0001 23.6324 14 24.1572C14 24.7083 14.1722 25.1678 14.5166 25.5352C14.8877 25.8764 15.339 26.0469 15.8691 26.0469H21.793V31.874C21.793 32.5039 21.9921 33.0155 22.3896 33.4092C22.8138 33.8029 23.3308 34 23.9404 34C24.5766 34 25.0936 33.8029 25.4912 33.4092C25.8887 33.0155 26.0879 32.5038 26.0879 31.874V26.0469H32.1309C32.661 26.0469 33.0988 25.8764 33.4434 25.5352C33.8143 25.1678 34 24.7349 34 24.2363C34 23.6851 33.8145 23.2387 33.4434 22.8975C33.0988 22.5563 32.661 22.3857 32.1309 22.3857H26.0879V16.0869C26.0879 15.4833 25.8887 14.9845 25.4912 14.5908C25.1202 14.1972 24.6165 14.0001 23.9805 14Z" fill="#4FE883"/>
</svg>
