<svg width="48" height="48" viewBox="0 0 48 48" fill="none" xmlns="http://www.w3.org/2000/svg">
<path d="M22.2624 34.3975C22.4189 34.7998 22.6402 35.1695 22.9147 35.4932C22.9147 35.4953 22.9147 35.4979 22.9147 35.5C22.9147 37.6054 24.6011 39.3167 26.6969 39.3564C26.7375 39.9321 26.8797 40.4865 27.1051 41H10.6667V34.3975H22.2624ZM35.2223 29V37.2227C35.222 39.6966 32.9007 40.6501 31.109 40.915C30.3342 40.6822 29.7752 39.9956 29.696 39.1992C29.6723 38.9612 29.6915 38.7131 29.7604 38.4648L31.9811 30.4648C32.0125 30.3518 32.0531 30.2429 32.1022 30.1396C32.4291 29.4527 33.127 29.0002 33.9079 29H35.2223ZM27.0934 36.8574L27.0573 36.9873C27.0171 36.9456 26.9788 36.9022 26.942 36.8574H27.0934ZM28.6003 34.6426C28.6481 34.6426 28.6951 34.6467 28.7409 34.6543C29.0238 34.7011 29.2603 34.8867 29.3776 35.1387C29.3782 35.14 29.3789 35.1413 29.3795 35.1426C29.4294 35.2513 29.4567 35.3726 29.4567 35.5C29.4567 35.9254 29.1472 36.2785 28.7409 36.3457C28.6951 36.3533 28.6481 36.3574 28.6003 36.3574H26.7711C26.7233 36.3574 26.6763 36.3533 26.6305 36.3457C26.2242 36.2785 25.9147 35.9254 25.9147 35.5C25.9147 35.3726 25.942 35.2513 25.9919 35.1426C25.9925 35.1413 25.9932 35.14 25.9938 35.1387C26.1111 34.8867 26.3476 34.7011 26.6305 34.6543C26.6763 34.6467 26.7233 34.6426 26.7711 34.6426H28.6003ZM29.5143 32.1426C29.9877 32.1426 30.3717 32.5266 30.3717 33C30.3717 33.4734 29.9877 33.8574 29.5143 33.8574H27.8219C27.7825 33.9477 27.7372 34.0349 27.6862 34.1182C27.6352 34.0349 27.5889 33.9477 27.5495 33.8574H26.5417C26.5999 33.7348 26.6334 33.5979 26.6335 33.4531C26.6335 32.9316 26.2106 32.5089 25.6891 32.5088H25.1549C25.3099 32.2876 25.5665 32.1426 25.8571 32.1426H29.5143ZM38.9997 14.5557H35.2223V26H33.9079C31.8463 26.0002 30.0166 27.2618 29.2653 29.1426H25.8571C23.8934 29.1426 22.2743 30.6106 22.0329 32.5088H10.6667V10.3057C10.6667 8.039 12.8705 7.15741 13.9723 7H38.9997V14.5557ZM16.944 24C16.4226 24.0002 15.9997 24.4229 15.9997 24.9443C15.9997 25.4658 16.4226 25.8884 16.944 25.8887H28.278C28.7995 25.8886 29.2223 25.4659 29.2223 24.9443C29.2223 24.4229 28.7995 24.0001 28.278 24H16.944ZM16.944 19C16.4226 19.0002 15.9997 19.4229 15.9997 19.9443C15.9997 20.4658 16.4226 20.8884 16.944 20.8887H24.4997C25.0213 20.8887 25.444 20.4659 25.444 19.9443C25.4439 19.4228 25.0212 19 24.4997 19H16.944ZM16.944 14C16.4226 14.0002 15.9997 14.4229 15.9997 14.9443C15.9997 15.4658 16.4226 15.8884 16.944 15.8887H28.278C28.7995 15.8886 29.2223 15.4659 29.2223 14.9443C29.2223 14.4229 28.7995 14.0001 28.278 14H16.944Z" fill="#8B8B8B"/>
<path d="M22.2619 34.4H7C5.89543 34.4 5 35.2955 5 36.4V38.1778C5 39.5401 6.53512 40.493 7.52948 40.8981C7.72856 40.9792 7.94292 41.0111 8.15789 41.0111H27.1086C26.8805 40.4946 26.738 39.9361 26.6972 39.3565C26.6453 39.3565 25.4779 38.5114 24.5 37.5C23.6186 36.5884 22.9143 35.5 22.9143 35.5L22.9143 35.4936C22.6402 35.1704 22.4184 34.8016 22.2619 34.4Z" fill="#666666"/>
<path fill-rule="evenodd" clip-rule="evenodd" d="M31.9811 30.4651C32.2214 29.5993 33.0097 29 33.9083 29H41.4273C42.7752 29 43.7372 30.3061 43.3373 31.5933L40.8522 39.5933C40.5924 40.4299 39.8183 41 38.9423 41H31.6879C30.3654 41 29.407 39.7394 29.7607 38.4651L31.9811 30.4651ZM25 33C25 32.5266 25.3838 32.1429 25.8571 32.1429H29.5143C29.9877 32.1429 30.3714 32.5266 30.3714 33C30.3714 33.4734 29.9877 33.8572 29.5143 33.8572H25.8571C25.3838 33.8572 25 33.4734 25 33ZM26.7714 34.6429C26.298 34.6429 25.9143 35.0266 25.9143 35.5C25.9143 35.9734 26.298 36.3572 26.7714 36.3572H28.6C29.0734 36.3572 29.4571 35.9734 29.4571 35.5C29.4571 35.0266 29.0734 34.6429 28.6 34.6429H26.7714Z" fill="#666666"/>
<path d="M35.2222 14.5556H40.7777C41.8823 14.5556 42.7777 13.6601 42.7777 12.5556V10.7778C42.9352 9.83333 42.4 7 39 7C35.5999 7 35.1051 9.83333 35.2222 10.7778L35.2222 14.5556Z" fill="#4C4C4C"/>
</svg>
