<svg width="48" height="48" viewBox="0 0 48 48" fill="none" xmlns="http://www.w3.org/2000/svg">
<path d="M20.0384 7.27625C20.5183 7.095 21.0369 7.03984 21.5442 7.11609L39.3733 9.79773C40.8725 10.0232 41.968 11.3321 41.9261 12.8475L41.4348 30.5468C41.4086 31.4943 40.9361 32.374 40.1604 32.9188L29.8167 40.1844C29.0816 40.7007 28.1537 40.8607 27.2884 40.62L9.28836 35.6122C8.04819 35.2671 7.1664 34.1691 7.09695 32.8837L6.11844 14.7714C6.04795 13.466 6.83106 12.2656 8.05399 11.8036L20.0384 7.27625ZM38.3186 12.285C37.9238 11.5569 37.0136 11.2869 36.2854 11.6815L28.137 16.0995L12.3098 12.7596C11.4994 12.5887 10.7037 13.1074 10.5325 13.9178C10.3617 14.7282 10.8803 15.5241 11.6907 15.6952L26.8665 18.8973V36.9999C26.8665 37.8283 27.5381 38.4998 28.3665 38.4999C29.1948 38.4997 29.8665 37.8282 29.8665 36.9999V18.5741L37.7151 14.3182C38.4431 13.9233 38.7134 13.0132 38.3186 12.285Z" fill="#8B8B8B"/>
</svg>
