<svg width="48" height="48" viewBox="0 0 48 48" fill="none" xmlns="http://www.w3.org/2000/svg">
<path fill-rule="evenodd" clip-rule="evenodd" d="M12 9.5C10.6193 9.5 9.5 10.6193 9.5 12V18C9.5 18.8284 8.82843 19.5 8 19.5C7.17157 19.5 6.5 18.8284 6.5 18V12C6.5 8.96243 8.96243 6.5 12 6.5H18C18.8284 6.5 19.5 7.17157 19.5 8C19.5 8.82843 18.8284 9.5 18 9.5H12ZM28.5 8C28.5 7.17157 29.1716 6.5 30 6.5H36C39.0376 6.5 41.5 8.96243 41.5 12V18C41.5 18.8284 40.8284 19.5 40 19.5C39.1716 19.5 38.5 18.8284 38.5 18V12C38.5 10.6193 37.3807 9.5 36 9.5H30C29.1716 9.5 28.5 8.82843 28.5 8ZM8 28.5C8.82843 28.5 9.5 29.1716 9.5 30V36C9.5 37.3807 10.6193 38.5 12 38.5H18C18.8284 38.5 19.5 39.1716 19.5 40C19.5 40.8284 18.8284 41.5 18 41.5H12C8.96243 41.5 6.5 39.0376 6.5 36V30C6.5 29.1716 7.17157 28.5 8 28.5ZM40 28.5C40.8284 28.5 41.5 29.1716 41.5 30V36C41.5 39.0376 39.0376 41.5 36 41.5H30C29.1716 41.5 28.5 40.8284 28.5 40C28.5 39.1716 29.1716 38.5 30 38.5H36C37.3807 38.5 38.5 37.3807 38.5 36V30C38.5 29.1716 39.1716 28.5 40 28.5Z" fill="#F3F3F3"/>
<path opacity="0.6" d="M34.25 32C34.25 32 33.7027 28.1896 31.103 27.8965C28.5034 27.6034 27.9561 32 27.9561 32" stroke="#DD5555" stroke-width="4" stroke-linecap="round"/>
<path opacity="0.8" d="M21.6622 32C21.6622 32 22.2095 21.4482 24.8091 21.4482C27.4088 21.4482 27.9561 32 27.9561 32" stroke="#DD5555" stroke-width="4" stroke-linecap="round"/>
<path d="M14 32C14 32 14 15 17.8311 15C21.6622 15 21.6622 32 21.6622 32" stroke="#DD5555" stroke-width="4" stroke-linecap="round"/>
</svg>
