<svg width="48" height="48" viewBox="0 0 48 48" fill="none" xmlns="http://www.w3.org/2000/svg">
<path d="M29 7C35.0751 7 40 11.9249 40 18V30C40 36.0751 35.0751 41 29 41H18C11.9249 41 7 36.0751 7 30V18C7 11.9249 11.9249 7 18 7H29ZM27.8145 26.5117C26.9984 26.6137 26.4177 27.353 26.5098 28.168V28.1699C26.5104 28.1776 26.5117 28.1968 26.5127 28.2256C26.5148 28.2848 26.5158 28.3807 26.5059 28.5C26.4853 28.7467 26.4239 29.0477 26.2832 29.3291C26.1506 29.5943 25.9396 29.8601 25.5684 30.0723C25.1872 30.2901 24.5509 30.5 23.5 30.5C22.4492 30.5 21.8128 30.29 21.4316 30.0723C21.0605 29.8601 20.8494 29.5942 20.7168 29.3291C20.5761 29.0478 20.5157 28.7467 20.4951 28.5C20.4852 28.3807 20.4852 28.2848 20.4873 28.2256C20.4879 28.2084 20.4876 28.1945 20.4883 28.1846C20.5902 27.3633 20.0078 26.6146 19.1865 26.5117C18.3647 26.409 17.6147 26.9917 17.5117 27.8135L18.5928 27.9492C17.5878 27.8237 17.5168 27.8153 17.5117 27.8154V27.8174C17.5116 27.8187 17.5109 27.8208 17.5107 27.8223C17.5104 27.825 17.5101 27.8279 17.5098 27.8311C17.509 27.8379 17.5078 27.8466 17.5068 27.8555C17.505 27.8731 17.5031 27.8947 17.501 27.9199C17.4967 27.9711 17.4921 28.0382 17.4893 28.1182C17.4836 28.2776 17.4846 28.4946 17.5059 28.75C17.5478 29.2532 17.674 29.9525 18.0332 30.6709C18.4006 31.4056 19.0023 32.14 19.9434 32.6777C20.8746 33.2098 22.0513 33.5 23.5 33.5C24.9487 33.5 26.1254 33.2098 27.0566 32.6777C27.9976 32.14 28.5994 31.4056 28.9668 30.6709C29.326 29.9525 29.4531 29.2532 29.4951 28.75C29.5164 28.4946 29.5164 28.2776 29.5107 28.1182C29.5079 28.0382 29.5033 27.9711 29.499 27.9199C29.4969 27.8947 29.495 27.8731 29.4932 27.8555C29.4922 27.8466 29.492 27.8379 29.4912 27.8311C29.4908 27.8279 29.4896 27.825 29.4893 27.8223V27.8154C29.4886 27.8146 29.4602 27.8175 28 28L29.4883 27.8135C29.3853 26.9919 28.6361 26.4093 27.8145 26.5117ZM20.4902 28.1699C20.4901 28.1716 20.4895 28.1739 20.4893 28.1768L20.4902 28.1748C20.4906 28.1718 20.4911 28.1693 20.4912 28.168L20.4902 28.1699ZM20 16.5C19.1716 16.5 18.5 17.1716 18.5 18V22C18.5 22.8284 19.1716 23.5 20 23.5C20.8284 23.5 21.5 22.8284 21.5 22V18C21.5 17.1716 20.8284 16.5 20 16.5ZM27 16.5C26.1716 16.5 25.5 17.1716 25.5 18V22C25.5 22.8284 26.1716 23.5 27 23.5C27.8284 23.5 28.5 22.8284 28.5 22V18C28.5 17.1716 27.8284 16.5 27 16.5Z" fill="#66C1FF"/>
</svg>
