<svg width="48" height="48" viewBox="0 0 48 48" fill="none" xmlns="http://www.w3.org/2000/svg">
<path d="M28.4998 10.538C28.5454 10.7263 28.6348 10.9011 28.7607 11.0483C28.8866 11.1955 29.0455 11.3108 29.2244 11.3851C29.4033 11.4593 29.5972 11.4902 29.7903 11.4754C29.9834 11.4605 30.1703 11.4003 30.3357 11.2996C34.4819 8.77518 39.2265 13.5181 36.7021 17.6643C36.6014 17.8296 36.5411 18.0164 36.5262 18.2094C36.5112 18.4024 36.542 18.5962 36.6161 18.7751C36.6901 18.954 36.8053 19.1129 36.9523 19.2389C37.0992 19.3648 37.2739 19.4544 37.462 19.5002C42.1793 20.6443 42.1793 27.354 37.462 28.4998C37.2737 28.5454 37.0989 28.6348 36.9517 28.7607C36.8045 28.8866 36.6892 29.0455 36.6149 29.2244C36.5407 29.4033 36.5098 29.5972 36.5246 29.7903C36.5395 29.9834 36.5997 30.1703 36.7004 30.3357C39.2248 34.4819 34.4819 39.2265 30.3357 36.7021C30.1704 36.6014 29.9836 36.5411 29.7906 36.5262C29.5976 36.5112 29.4038 36.542 29.2249 36.6161C29.046 36.6901 28.8871 36.8053 28.7611 36.9523C28.6352 37.0992 28.5456 37.2739 28.4998 37.462C27.3557 42.1793 20.646 42.1793 19.5002 37.462C19.4546 37.2737 19.3652 37.0989 19.2393 36.9517C19.1134 36.8045 18.9545 36.6892 18.7756 36.6149C18.5967 36.5407 18.4028 36.5098 18.2097 36.5246C18.0166 36.5395 17.8297 36.5997 17.6643 36.7004C13.5181 39.2248 8.77348 34.4819 11.2979 30.3357C11.3986 30.1704 11.4589 29.9836 11.4738 29.7906C11.4888 29.5976 11.458 29.4038 11.3839 29.2249C11.3099 29.046 11.1947 28.8871 11.0477 28.7611C10.9008 28.6352 10.7261 28.5456 10.538 28.4998C5.82065 27.3557 5.82065 20.646 10.538 19.5002C10.7263 19.4546 10.9011 19.3652 11.0483 19.2393C11.1955 19.1134 11.3108 18.9545 11.3851 18.7756C11.4593 18.5967 11.4902 18.4028 11.4754 18.2097C11.4605 18.0166 11.4003 17.8297 11.2996 17.6643C8.77518 13.5181 13.5181 8.77348 17.6643 11.2979C17.8294 11.3994 18.0163 11.4603 18.2095 11.4756C18.4028 11.4909 18.5969 11.4603 18.776 11.3861C18.9551 11.312 19.1141 11.1965 19.24 11.0491C19.3659 10.9017 19.455 10.7265 19.5002 10.538C20.6443 5.82065 27.354 5.82065 28.4998 10.538ZM24 18.9001C22.6474 18.9001 21.3503 19.4374 20.3938 20.3938C19.4374 21.3503 18.9001 22.6474 18.9001 24C18.9001 25.3526 19.4374 26.6497 20.3938 27.6062C21.3503 28.5626 22.6474 29.0999 24 29.0999C25.3526 29.0999 26.6497 28.5626 27.6062 27.6062C28.5626 26.6497 29.0999 25.3526 29.0999 24C29.0999 22.6474 28.5626 21.3503 27.6062 20.3938C26.6497 19.4374 25.3526 18.9001 24 18.9001Z" fill="#7F7F7F"/>
</svg>
