<svg width="48" height="48" viewBox="0 0 48 48" fill="none" xmlns="http://www.w3.org/2000/svg">
<path d="M37 7C39.2091 7 41 8.79086 41 11V37C41 39.2091 39.2091 41 37 41H11C8.79086 41 7 39.2091 7 37V11C7 8.79086 8.79086 7 11 7H37ZM12 10C10.8954 10 10 10.8954 10 12V26C10 27.1046 10.8954 28 12 28H26C27.1046 28 28 27.1046 28 26V12C28 10.8954 27.1046 10 26 10H12ZM31 13C30.4477 13 30 13.4477 30 14C30 14.5523 30.4477 15 31 15H37L37.1025 14.9951C37.6067 14.9438 38 14.5177 38 14C38 13.4823 37.6067 13.0562 37.1025 13.0049L37 13H31ZM31 10C30.4477 10 30 10.4477 30 11C30 11.5523 30.4477 12 31 12H37L37.1025 11.9951C37.6067 11.9438 38 11.5177 38 11C38 10.4823 37.6067 10.0562 37.1025 10.0049L37 10H31Z" fill="#FF5858"/>
</svg>
