<svg width="48" height="48" viewBox="0 0 48 48" fill="none" xmlns="http://www.w3.org/2000/svg">
<circle cx="24" cy="24" r="17" fill="#FFDF8E"/>
<mask id="mask0_773_2271" style="mask-type:alpha" maskUnits="userSpaceOnUse" x="7" y="7" width="34" height="34">
<circle cx="24" cy="24" r="17" fill="#FFDF8E"/>
</mask>
<g mask="url(#mask0_773_2271)">
<path d="M16.8625 42.445C16.8625 42.445 12.9125 30.98 25.2062 24.49C37.5 18 34.444 4.61126 34.444 4.61126L33.2426 1.32391L-0.570084 13.6812L10.7574 44.6761L16.8625 42.445Z" fill="#CC00FF"/>
<path d="M18.875 12C21.2851 12.9072 23 15.2336 23 17.9609C22.9998 21.4774 20.1492 24.3279 16.6328 24.3281C14.8073 24.3281 13.162 23.5589 12.001 22.3281C12.6989 22.591 13.4552 22.7363 14.2451 22.7363C17.7615 22.7361 20.6121 19.8855 20.6123 16.3691C20.6123 14.6774 19.9513 13.1403 18.875 12Z" fill="#FFDF8E"/>
<circle cx="30.5" cy="30.5" r="4.5" fill="#CC00FF"/>
</g>
</svg>
