<svg width="48" height="48" viewBox="0 0 48 48" fill="none" xmlns="http://www.w3.org/2000/svg">
<path d="M37 7C39.2091 7 41 8.79086 41 11V37C41 39.2091 39.2091 41 37 41H11C8.79086 41 7 39.2091 7 37V11C7 8.79086 8.79086 7 11 7H37ZM14.8643 20.7734C14.7125 20.7735 14.563 20.8137 14.4316 20.8896C14.3003 20.9656 14.191 21.0746 14.1152 21.2061C14.0395 21.3375 13.9999 21.4869 14 21.6387V29.8076C14 29.9594 14.0403 30.1088 14.1162 30.2402C14.1921 30.3716 14.3012 30.4808 14.4326 30.5566L21.4951 34.6387C21.6266 34.7146 21.7759 34.7539 21.9277 34.7539C22.0795 34.7539 22.2289 34.7146 22.3604 34.6387C22.4917 34.5628 22.6009 34.4536 22.6768 34.3223C22.7527 34.1908 22.7929 34.0414 22.793 33.8896V31.6729C22.7929 31.5207 22.752 31.3709 22.6758 31.2393C22.5995 31.1078 22.4902 30.9985 22.3584 30.9229L18.0742 28.4668C17.9422 28.3911 17.8322 28.2812 17.7559 28.1494C17.6796 28.0177 17.6396 27.868 17.6396 27.7158V22.7363C17.6398 22.5844 17.6003 22.4344 17.5244 22.3027C17.4485 22.1711 17.3386 22.0623 17.207 21.9863L15.2969 20.8887C15.1655 20.8129 15.016 20.7734 14.8643 20.7734ZM33.2432 20.7734C33.0914 20.7734 32.942 20.8128 32.8105 20.8887L30.9004 21.9863C30.769 22.0622 30.6598 22.1713 30.584 22.3027C30.5081 22.4344 30.4676 22.5844 30.4678 22.7363V27.7158C30.4678 27.868 30.4278 28.0177 30.3516 28.1494C30.2753 28.2812 30.1653 28.3911 30.0332 28.4668L25.75 30.9229C25.618 30.9985 25.5079 31.1077 25.4316 31.2393C25.3554 31.3709 25.3155 31.5207 25.3154 31.6729V33.8896C25.3155 34.0414 25.3547 34.1908 25.4307 34.3223C25.5066 34.4537 25.6166 34.5628 25.748 34.6387C25.8793 34.7144 26.0281 34.7539 26.1797 34.7539C26.3314 34.7539 26.4809 34.7145 26.6123 34.6387L33.6758 30.5566C33.8071 30.4808 33.9164 30.3715 33.9922 30.2402C34.068 30.1088 34.1074 29.9593 34.1074 29.8076V21.6387C34.1075 21.4869 34.068 21.3375 33.9922 21.2061C33.9164 21.0746 33.8071 20.9656 33.6758 20.8896C33.5443 20.8136 33.395 20.7735 33.2432 20.7734ZM23.9482 20.3564C23.7965 20.3565 23.647 20.3968 23.5156 20.4727L20.4531 22.2432C20.3217 22.3191 20.2126 22.4282 20.1367 22.5596C20.0609 22.6909 20.0206 22.8396 20.0205 22.9912V26.5342C20.0206 26.6859 20.0608 26.8354 20.1367 26.9668C20.2126 27.098 20.3218 27.2074 20.4531 27.2832L23.5156 29.0527C23.647 29.1286 23.7965 29.1689 23.9482 29.1689C24.1001 29.1689 24.2494 29.1286 24.3809 29.0527L27.4443 27.2832C27.5756 27.2074 27.6849 27.0981 27.7607 26.9668C27.8366 26.8354 27.8759 26.6859 27.876 26.5342V22.9912C27.8759 22.8397 27.8365 22.6908 27.7607 22.5596C27.6849 22.4283 27.5756 22.319 27.4443 22.2432L24.3809 20.4727C24.2494 20.3968 24.1 20.3564 23.9482 20.3564ZM24.0537 13C23.902 13 23.7525 13.0403 23.6211 13.1162L16.5127 17.2217C16.3817 17.2974 16.2721 17.4062 16.1963 17.5371C16.1205 17.6679 16.0806 17.8166 16.0801 17.9678C16.0796 18.119 16.1184 18.268 16.1934 18.3994C16.2683 18.5307 16.3765 18.6402 16.5068 18.7168L18.4482 19.8545C18.5801 19.9318 18.73 19.9731 18.8828 19.9736C19.0356 19.9741 19.1861 19.9338 19.3184 19.8574L23.6211 17.3682C23.7525 17.2923 23.902 17.253 24.0537 17.2529C24.2055 17.2529 24.3549 17.2923 24.4863 17.3682L28.79 19.8574C28.9223 19.9338 29.0728 19.9731 29.2256 19.9727C29.3783 19.9722 29.5284 19.9317 29.6602 19.8545L31.6006 18.7168C31.7311 18.6403 31.8391 18.5308 31.9141 18.3994C31.9891 18.268 32.0288 18.1191 32.0283 17.9678C32.0278 17.8165 31.987 17.668 31.9111 17.5371C31.8352 17.4063 31.7267 17.2973 31.5957 17.2217L24.4863 13.1162C24.3549 13.0403 24.2055 13 24.0537 13Z" fill="#DDDDDD"/>
</svg>
