<svg width="48" height="48" viewBox="0 0 48 48" fill="none" xmlns="http://www.w3.org/2000/svg">
<path fill-rule="evenodd" clip-rule="evenodd" d="M31.1109 40.9163C32.9025 40.651 35.2222 39.6958 35.2222 37.2222V29H33.9083C33.1271 29 32.4293 29.4529 32.1024 30.1401C32.0533 30.2434 32.0125 30.352 31.9811 30.4651L29.7607 38.4651C29.6918 38.7134 29.6727 38.9611 29.6964 39.1991C29.7757 39.9962 30.335 40.684 31.1109 40.9163ZM27.1037 41C26.8784 40.4866 26.7377 39.932 26.6972 39.3565C24.6012 39.3169 22.9143 37.6055 22.9143 35.5L22.9143 35.4936C22.6396 35.1697 22.4174 34.7999 22.2609 34.3973H10.6667V41H27.1037ZM22.031 32.5084H10.6667V10.3056C10.6667 8.03889 12.8704 7.15741 13.9722 7H39V14.5556H35.2222V26H33.9083C31.8465 26 30.0171 27.262 29.2658 29.1429H25.8571C23.8935 29.1429 22.2725 30.6103 22.031 32.5084ZM26.5426 33.8572C26.6008 33.7346 26.6333 33.5975 26.6333 33.4528C26.6333 32.9312 26.2104 32.5084 25.6888 32.5084H25.1549C25.3099 32.2874 25.5667 32.1429 25.8571 32.1429H29.5143C29.9877 32.1429 30.3714 32.5266 30.3714 33C30.3714 33.4734 29.9877 33.8572 29.5143 33.8572H27.8217C27.7822 33.9475 27.7367 34.0345 27.6857 34.1178C27.6347 34.0345 27.5892 33.9475 27.5497 33.8572H26.5426ZM16.9444 24C16.4228 24 16 24.4228 16 24.9444C16 25.466 16.4228 25.8889 16.9444 25.8889H28.2778C28.7994 25.8889 29.2222 25.466 29.2222 24.9444C29.2222 24.4228 28.7994 24 28.2778 24H16.9444ZM16.9444 19C16.4228 19 16 19.4228 16 19.9444C16 20.466 16.4228 20.8889 16.9444 20.8889H24.5C25.0216 20.8889 25.4444 20.466 25.4444 19.9444C25.4444 19.4228 25.0216 19 24.5 19H16.9444ZM16 14.9444C16 14.4228 16.4228 14 16.9444 14H28.2778C28.7994 14 29.2222 14.4228 29.2222 14.9444C29.2222 15.466 28.7994 15.8889 28.2778 15.8889H16.9444C16.4228 15.8889 16 15.466 16 14.9444ZM29.4571 35.5C29.4571 35.9254 29.1473 36.2784 28.741 36.3456C28.6951 36.3532 28.648 36.3572 28.6 36.3572H26.7714C26.7234 36.3572 26.6763 36.3532 26.6304 36.3456C26.2241 36.2784 25.9143 35.9254 25.9143 35.5C25.9143 35.3726 25.9421 35.2516 25.992 35.1429L25.994 35.1386C26.1113 34.8867 26.3475 34.7012 26.6304 34.6544C26.6763 34.6468 26.7234 34.6429 26.7714 34.6429H28.6C28.648 34.6429 28.6951 34.6468 28.741 34.6544C29.0239 34.7012 29.2601 34.8867 29.3774 35.1386L29.3794 35.1429C29.4293 35.2516 29.4571 35.3726 29.4571 35.5ZM26.9416 36.8572H27.0936L27.0574 36.9874C27.0171 36.9456 26.9785 36.9022 26.9416 36.8572Z" fill="#8B8B8B"/>
<path d="M22.2619 34.4H7C5.89543 34.4 5 35.2955 5 36.4V38.1778C5 39.5401 6.53512 40.493 7.52948 40.8981C7.72856 40.9792 7.94292 41.0111 8.15789 41.0111H27.1086C26.8805 40.4946 26.738 39.9361 26.6972 39.3565C26.6453 39.3565 25.4779 38.5114 24.5 37.5C23.6186 36.5884 22.9143 35.5 22.9143 35.5L22.9143 35.4936C22.6402 35.1704 22.4184 34.8016 22.2619 34.4Z" fill="#666666"/>
<path fill-rule="evenodd" clip-rule="evenodd" d="M31.9811 30.4651C32.2214 29.5993 33.0097 29 33.9083 29H41.4273C42.7752 29 43.7372 30.3061 43.3373 31.5933L40.8522 39.5933C40.5924 40.4299 39.8183 41 38.9423 41H31.6879C30.3654 41 29.407 39.7394 29.7607 38.4651L31.9811 30.4651ZM25 33C25 32.5266 25.3838 32.1429 25.8571 32.1429H29.5143C29.9877 32.1429 30.3714 32.5266 30.3714 33C30.3714 33.4734 29.9877 33.8572 29.5143 33.8572H25.8571C25.3838 33.8572 25 33.4734 25 33ZM26.7714 34.6429C26.298 34.6429 25.9143 35.0266 25.9143 35.5C25.9143 35.9734 26.298 36.3572 26.7714 36.3572H28.6C29.0734 36.3572 29.4571 35.9734 29.4571 35.5C29.4571 35.0266 29.0734 34.6429 28.6 34.6429H26.7714Z" fill="#666666"/>
<path d="M35.2222 14.5556H40.7777C41.8823 14.5556 42.7777 13.6601 42.7777 12.5556V10.7778C42.9352 9.83333 42.4 7 39 7C35.5999 7 35.1051 9.83333 35.2222 10.7778L35.2222 14.5556Z" fill="#4C4C4C"/>
</svg>
