<svg width="48" height="48" viewBox="0 0 48 48" fill="none" xmlns="http://www.w3.org/2000/svg">
<path d="M9 27.5C10.1046 27.5 11 28.3954 11 29.5V35L11.0107 35.2041C11.113 36.2128 11.9643 37 13 37H18.5C19.6046 37 20.5 37.8954 20.5 39C20.5 40.1046 19.6046 41 18.5 41H13C9.78979 41 7.16843 38.4789 7.00781 35.3086L7 35V29.5C7 28.3954 7.89543 27.5 9 27.5ZM39 27.5C40.1046 27.5 41 28.3954 41 29.5V35C41 38.3137 38.3137 41 35 41H29.5C28.3954 41 27.5 40.1046 27.5 39C27.5 37.8954 28.3954 37 29.5 37H35C36.1046 37 37 36.1046 37 35V29.5C37 28.3954 37.8954 27.5 39 27.5ZM15.6318 14.541C16.4376 13.7856 17.7035 13.8262 18.459 14.6318L33.459 30.6318C34.2144 31.4376 34.1738 32.7035 33.3682 33.459C32.5624 34.2144 31.2965 34.1738 30.541 33.3682L16.8525 18.7676V18.7666L15.541 17.3682C14.7856 16.5624 14.8262 15.2965 15.6318 14.541ZM17.1318 21.9883C15.8796 22.7349 15.5 23.4973 15.5 24C15.5 24.5467 15.9488 25.4013 17.4814 26.208C18.3841 26.6831 19.5388 27.0624 20.8613 27.2842C20.4941 26.6825 20.2293 25.9535 20.0967 25.1504L25.0537 30.4385C24.5445 30.4791 24.0256 30.5 23.5 30.5C20.6834 30.5 18.0588 29.9026 16.084 28.8633C14.1784 27.8603 12.5 26.2147 12.5 24C12.5 22.1994 13.6089 20.7743 15.0479 19.7656L17.1318 21.9883ZM23.8926 17.5049C26.5599 17.5577 29.0332 18.1458 30.916 19.1367C32.8216 20.1397 34.5 21.7853 34.5 24C34.5 25.2961 33.9223 26.3946 33.0635 27.2861L31.0088 25.0947C31.3685 24.6772 31.5 24.2945 31.5 24C31.5 23.4533 31.0512 22.5987 29.5186 21.792C28.8377 21.4337 28.0135 21.1293 27.082 20.9062L23.8926 17.5049ZM18.7041 7.01074C19.7128 7.113 20.5 7.96435 20.5 9C20.5 10.0357 19.7128 10.887 18.7041 10.9893L18.5 11H13C11.8954 11 11 11.8954 11 13V18.5L10.9893 18.7041C10.887 19.7128 10.0357 20.5 9 20.5C7.96435 20.5 7.113 19.7128 7.01074 18.7041L7 18.5V13C7 9.68629 9.68629 7 13 7H18.5L18.7041 7.01074ZM35.3086 7.00781C38.4789 7.16843 41 9.78979 41 13V18.5C41 19.6046 40.1046 20.5 39 20.5C37.8954 20.5 37 19.6046 37 18.5V13C37 11.9643 36.2128 11.113 35.2041 11.0107L35 11H29.5C28.3954 11 27.5 10.1046 27.5 9C27.5 7.89543 28.3954 7 29.5 7H35L35.3086 7.00781Z" fill="#66C1FF"/>
</svg>
